<?xml version="1.0" encoding="UTF-8"?>
<svg xmlns="http://www.w3.org/2000/svg" xmlns:xlink="http://www.w3.org/1999/xlink" width="375pt" height="374.999991pt" viewBox="0 0 375 374.999991" version="1.2">
<defs>
<clipPath id="clip1">
  <path d="M 1 68 L 370 68 L 370 307 L 1 307 Z M 1 68 "/>
</clipPath>
<clipPath id="clip2">
  <path d="M -5.933594 80.324219 L 363.648438 54.257812 L 380.585938 294.410156 L 11.003906 320.476562 Z M -5.933594 80.324219 "/>
</clipPath>
<clipPath id="clip3">
  <path d="M -5.933594 80.324219 L 363.648438 54.257812 L 380.585938 294.410156 L 11.003906 320.476562 Z M -5.933594 80.324219 "/>
</clipPath>
<clipPath id="clip4">
  <path d="M 17 189 L 43 189 L 43 285 L 17 285 Z M 17 189 "/>
</clipPath>
<clipPath id="clip5">
  <path d="M -5.933594 80.324219 L 363.648438 54.257812 L 380.585938 294.410156 L 11.003906 320.476562 Z M -5.933594 80.324219 "/>
</clipPath>
<clipPath id="clip6">
  <path d="M -5.933594 80.324219 L 363.648438 54.257812 L 380.585938 294.410156 L 11.003906 320.476562 Z M -5.933594 80.324219 "/>
</clipPath>
<clipPath id="clip7">
  <path d="M 9 240 L 55 240 L 55 285 L 9 285 Z M 9 240 "/>
</clipPath>
<clipPath id="clip8">
  <path d="M -5.933594 80.324219 L 363.648438 54.257812 L 380.585938 294.410156 L 11.003906 320.476562 Z M -5.933594 80.324219 "/>
</clipPath>
<clipPath id="clip9">
  <path d="M -5.933594 80.324219 L 363.648438 54.257812 L 380.585938 294.410156 L 11.003906 320.476562 Z M -5.933594 80.324219 "/>
</clipPath>
</defs>
<g id="surface1">
<g clip-path="url(#clip1)" clip-rule="nonzero">
<g clip-path="url(#clip2)" clip-rule="nonzero">
<g clip-path="url(#clip3)" clip-rule="nonzero">
<path style=" stroke:none;fill-rule:nonzero;fill:rgb(49.798584%,71.369934%,52.159119%);fill-opacity:1;" d="M 299.585938 260.171875 L 197.613281 306.351562 L 90.167969 274.941406 L 84.421875 193.449219 L 188.5 223.886719 C 189.585938 224.191406 190.691406 224.3125 191.820312 224.238281 C 192.949219 224.15625 194.027344 223.882812 195.0625 223.421875 L 293.835938 178.679688 Z M 299.414062 155.382812 C 299.066406 155.425781 298.726562 155.488281 298.386719 155.570312 L 190.425781 204.484375 L 76.671875 171.207031 C 76.324219 171.171875 75.976562 171.160156 75.628906 171.164062 L 1.347656 149.425781 L 180.808594 68.117188 L 369.910156 123.433594 Z M 299.414062 155.382812 "/>
</g>
</g>
</g>
<g clip-path="url(#clip4)" clip-rule="nonzero">
<g clip-path="url(#clip5)" clip-rule="nonzero">
<g clip-path="url(#clip6)" clip-rule="nonzero">
<path style=" stroke:none;fill-rule:nonzero;fill:rgb(49.798584%,71.369934%,52.159119%);fill-opacity:1;" d="M 33.355469 284.859375 C 32.734375 284.902344 32.117188 284.886719 31.5 284.808594 C 30.886719 284.730469 30.285156 284.59375 29.695312 284.398438 C 29.105469 284.199219 28.542969 283.949219 28.003906 283.640625 C 27.464844 283.332031 26.960938 282.976562 26.492188 282.570312 C 26.023438 282.164062 25.597656 281.714844 25.21875 281.222656 C 24.839844 280.734375 24.511719 280.210938 24.234375 279.65625 C 23.957031 279.101562 23.734375 278.523438 23.570312 277.925781 C 23.40625 277.328125 23.304688 276.71875 23.261719 276.097656 L 17.875 199.714844 C 17.832031 199.097656 17.847656 198.480469 17.925781 197.863281 C 18.003906 197.25 18.140625 196.644531 18.335938 196.058594 C 18.535156 195.46875 18.785156 194.90625 19.09375 194.367188 C 19.402344 193.828125 19.757812 193.324219 20.164062 192.855469 C 20.570312 192.386719 21.019531 191.964844 21.511719 191.582031 C 22 191.203125 22.523438 190.875 23.078125 190.597656 C 23.636719 190.320312 24.210938 190.097656 24.8125 189.9375 C 25.410156 189.773438 26.019531 189.667969 26.636719 189.625 C 27.257812 189.582031 27.875 189.597656 28.488281 189.675781 C 29.105469 189.753906 29.707031 189.890625 30.296875 190.089844 C 30.882812 190.285156 31.449219 190.535156 31.988281 190.84375 C 32.527344 191.152344 33.03125 191.507812 33.5 191.914062 C 33.96875 192.324219 34.390625 192.769531 34.773438 193.261719 C 35.152344 193.75 35.480469 194.273438 35.757812 194.828125 C 36.035156 195.382812 36.253906 195.960938 36.417969 196.558594 C 36.582031 197.15625 36.6875 197.765625 36.730469 198.386719 L 42.117188 274.769531 C 42.160156 275.386719 42.144531 276.003906 42.066406 276.621094 C 41.988281 277.238281 41.851562 277.839844 41.652344 278.425781 C 41.457031 279.015625 41.203125 279.578125 40.898438 280.117188 C 40.589844 280.65625 40.230469 281.160156 39.824219 281.628906 C 39.417969 282.097656 38.96875 282.523438 38.480469 282.902344 C 37.988281 283.28125 37.464844 283.609375 36.910156 283.886719 C 36.355469 284.164062 35.777344 284.386719 35.179688 284.550781 C 34.582031 284.710938 33.972656 284.816406 33.355469 284.859375 Z M 33.355469 284.859375 "/>
</g>
</g>
</g>
<g clip-path="url(#clip7)" clip-rule="nonzero">
<g clip-path="url(#clip8)" clip-rule="nonzero">
<g clip-path="url(#clip9)" clip-rule="nonzero">
<path style=" stroke:none;fill-rule:nonzero;fill:rgb(49.798584%,71.369934%,52.159119%);fill-opacity:1;" d="M 33.355469 284.859375 C 32.621094 284.910156 31.886719 284.925781 31.148438 284.90625 C 30.414062 284.886719 29.679688 284.832031 28.953125 284.738281 C 28.222656 284.644531 27.496094 284.515625 26.78125 284.355469 C 26.0625 284.191406 25.355469 283.992188 24.65625 283.757812 C 23.960938 283.527344 23.273438 283.257812 22.605469 282.957031 C 21.933594 282.660156 21.277344 282.324219 20.636719 281.960938 C 20 281.597656 19.378906 281.203125 18.78125 280.777344 C 18.179688 280.351562 17.601562 279.894531 17.046875 279.414062 C 16.492188 278.929688 15.960938 278.421875 15.453125 277.886719 C 14.949219 277.355469 14.472656 276.796875 14.019531 276.214844 C 13.570312 275.632812 13.148438 275.03125 12.757812 274.40625 C 12.367188 273.785156 12.007812 273.144531 11.679688 272.488281 C 11.351562 271.828125 11.054688 271.15625 10.792969 270.46875 C 10.53125 269.78125 10.300781 269.082031 10.109375 268.371094 C 9.914062 267.664062 9.757812 266.945312 9.632812 266.222656 C 9.511719 265.496094 9.421875 264.765625 9.371094 264.03125 C 9.320312 263.296875 9.304688 262.5625 9.328125 261.828125 C 9.347656 261.09375 9.402344 260.359375 9.496094 259.632812 C 9.589844 258.902344 9.71875 258.179688 9.882812 257.460938 C 10.046875 256.746094 10.246094 256.039062 10.480469 255.339844 C 10.710938 254.640625 10.980469 253.957031 11.28125 253.285156 C 11.582031 252.613281 11.914062 251.960938 12.28125 251.320312 C 12.644531 250.683594 13.039062 250.0625 13.464844 249.464844 C 13.890625 248.863281 14.347656 248.289062 14.828125 247.730469 C 15.3125 247.175781 15.820312 246.648438 16.355469 246.140625 C 16.890625 245.636719 17.449219 245.160156 18.03125 244.710938 C 18.613281 244.257812 19.214844 243.839844 19.839844 243.449219 C 20.460938 243.058594 21.105469 242.699219 21.761719 242.371094 C 22.421875 242.042969 23.09375 241.746094 23.78125 241.484375 C 24.46875 241.222656 25.167969 240.996094 25.878906 240.800781 C 26.585938 240.609375 27.304688 240.453125 28.03125 240.328125 C 28.757812 240.207031 29.484375 240.121094 30.21875 240.070312 C 30.953125 240.015625 31.6875 240.003906 32.425781 240.023438 C 33.160156 240.046875 33.890625 240.101562 34.621094 240.195312 C 35.351562 240.289062 36.074219 240.417969 36.792969 240.582031 C 37.507812 240.746094 38.21875 240.945312 38.914062 241.179688 C 39.613281 241.414062 40.296875 241.679688 40.96875 241.980469 C 41.640625 242.28125 42.292969 242.617188 42.933594 242.980469 C 43.570312 243.347656 44.191406 243.742188 44.789062 244.167969 C 45.390625 244.59375 45.964844 245.050781 46.519531 245.53125 C 47.074219 246.015625 47.605469 246.523438 48.109375 247.058594 C 48.617188 247.59375 49.09375 248.152344 49.542969 248.734375 C 49.992188 249.316406 50.414062 249.921875 50.804688 250.542969 C 51.195312 251.167969 51.554688 251.808594 51.882812 252.464844 C 52.207031 253.125 52.503906 253.796875 52.765625 254.484375 C 53.027344 255.171875 53.253906 255.871094 53.445312 256.582031 C 53.640625 257.292969 53.796875 258.007812 53.917969 258.734375 C 54.042969 259.460938 54.128906 260.1875 54.179688 260.921875 C 54.230469 261.65625 54.246094 262.390625 54.226562 263.125 C 54.203125 263.859375 54.148438 264.589844 54.054688 265.320312 C 53.960938 266.046875 53.835938 266.769531 53.671875 267.488281 C 53.507812 268.203125 53.308594 268.910156 53.074219 269.609375 C 52.84375 270.304688 52.578125 270.988281 52.277344 271.660156 C 51.976562 272.328125 51.644531 272.984375 51.277344 273.621094 C 50.914062 274.261719 50.519531 274.878906 50.09375 275.476562 C 49.667969 276.078125 49.210938 276.652344 48.730469 277.207031 C 48.25 277.761719 47.738281 278.292969 47.207031 278.796875 C 46.671875 279.300781 46.113281 279.777344 45.53125 280.226562 C 44.949219 280.675781 44.347656 281.097656 43.726562 281.488281 C 43.101562 281.878906 42.460938 282.238281 41.804688 282.566406 C 41.144531 282.890625 40.472656 283.1875 39.785156 283.449219 C 39.097656 283.710938 38.402344 283.9375 37.691406 284.128906 C 36.984375 284.320312 36.265625 284.480469 35.539062 284.601562 C 34.816406 284.722656 34.085938 284.808594 33.355469 284.859375 Z M 31.527344 258.941406 C 31.058594 258.976562 30.617188 259.105469 30.199219 259.316406 C 29.78125 259.53125 29.421875 259.816406 29.117188 260.175781 C 28.8125 260.53125 28.589844 260.933594 28.445312 261.378906 C 28.304688 261.824219 28.25 262.28125 28.289062 262.75 C 28.5625 266.632812 35.585938 266.023438 35.320312 262.253906 C 35.285156 261.785156 35.160156 261.34375 34.945312 260.925781 C 34.734375 260.507812 34.449219 260.144531 34.097656 259.839844 C 33.742188 259.53125 33.339844 259.304688 32.898438 259.15625 C 32.453125 259.007812 31.996094 258.945312 31.527344 258.976562 Z M 31.527344 258.941406 "/>
</g>
</g>
</g>
</g>
</svg>
